<?xml version="1.0" encoding="UTF-8"?>
<svg width="32px" height="32px" viewBox="0 0 32 32" version="1.1" xmlns="http://www.w3.org/2000/svg">
    <g stroke="none" stroke-width="1" fill="none" fill-rule="evenodd">
        <path d="M16,2 C17.1045695,2 18,2.8954305 18,4 L18,6 L22,6 C24.209139,6 26,7.790861 26,10 L26,24 C26,26.209139 24.209139,28 22,28 L10,28 C7.790861,28 6,26.209139 6,24 L6,10 C6,7.790861 7.790861,6 10,6 L14,6 L14,4 C14,2.8954305 14.8954305,2 16,2 Z M16,4 L16,6 L16,4 Z M22,8 L10,8 C8.8954305,8 8,8.8954305 8,10 L8,24 C8,25.1045695 8.8954305,26 10,26 L22,26 C23.1045695,26 24,25.1045695 24,24 L24,10 C24,8.8954305 23.1045695,8 22,8 Z M13,14 C14.1045695,14 15,14.8954305 15,16 C15,17.1045695 14.1045695,18 13,18 C11.8954305,18 11,17.1045695 11,16 C11,14.8954305 11.8954305,14 13,14 Z M19,14 C20.1045695,14 21,14.8954305 21,16 C21,17.1045695 20.1045695,18 19,18 C17.8954305,18 17,17.1045695 17,16 C17,14.8954305 17.8954305,14 19,14 Z" fill="#0762BD" fill-rule="nonzero"></path>
    </g>
</svg> 